<svg width="164" height="36" viewBox="0 0 164 36" fill="none" xmlns="http://www.w3.org/2000/svg">
<path d="M138.918 35.7819V9.08669H143.442V12.9883H143.785C145.045 10.5755 148.252 8.41931 152.89 8.41931C159.82 8.41931 164 13.091 164 18.9947V35.7819H159.476V19.2514C159.476 14.9904 155.983 12.2182 151.802 12.2182C147.107 12.2182 143.442 15.4525 143.442 19.8674V35.7819H138.918Z" fill="white"/>
<path d="M126.895 5.80929C125.228 5.80929 124.016 4.54639 124.016 2.87938C124.016 1.26289 125.228 0 126.895 0C128.612 0 129.825 1.26289 129.825 2.87938C129.825 4.54639 128.612 5.80929 126.895 5.80929ZM124.925 32.6246V13.9423H119.974V10.5577H128.916V35.7818L124.925 32.6246Z" fill="white"/>
<path d="M69.4588 35.7819V9.08669H73.8117V12.937H74.1423C75.5198 10.4728 78.2748 8.41931 82.5175 8.41931C86.8152 8.41931 89.9559 10.3701 91.5538 13.2963H91.9395C93.868 9.85675 97.0087 8.41931 101.031 8.41931C107.423 8.41931 111.555 12.6289 111.555 18.4813V35.7819H107.202V19.8161C107.202 14.7851 104.502 12.2182 100.26 12.2182C96.2373 12.2182 92.7109 14.8878 92.7109 19.8674V35.7819H88.358V19.0461C88.358 14.7851 85.2724 12.2182 81.2502 12.2182C77.2279 12.2182 73.8117 15.1958 73.8117 19.7134V35.7819H69.4588Z" fill="white"/>
<path d="M45.3581 35.7819L46.1582 25.8609L45.5181 25.5409L39.1175 33.2216L36.2372 30.3414L43.918 23.9408L43.5979 23.3007L33.677 24.1008V20.1004L43.5979 20.9005L43.918 20.2604L36.2372 13.8598L39.1175 10.9796L45.5181 18.6603L46.1582 18.3402L45.3581 8.41931H49.3585L48.5584 18.3402L49.1985 18.6603L55.5991 10.9796L58.4793 13.8598L50.7986 20.2604L51.1186 20.9005L61.0396 20.1004V24.1008L51.1186 23.3007L50.7986 23.9408L58.4793 30.3414L55.5991 33.2216L49.1985 25.5409L48.5584 25.8609L49.3585 35.7819H45.3581Z" fill="white"/>
<path d="M13.4876 36.0008C5.55671 36.0008 0 29.9894 0 22.21C0 14.4307 5.70825 8.41931 13.4371 8.41931C19.1454 8.41931 24.1969 11.8544 25.6114 17.7142L21.6712 18.6234C20.9639 14.6832 17.6299 12.0564 13.5382 12.0564C7.93093 12.0564 4.14227 16.5018 4.14227 22.21C4.14227 28.1204 8.133 32.3637 13.6392 32.3637C17.7309 32.3637 21.065 29.7369 21.7722 25.7967L25.7124 26.7059C24.298 32.5657 19.1959 36.0008 13.4876 36.0008Z" fill="white"/>
</svg>
